<?xml version="1.0" standalone="no"?>
<!DOCTYPE svg PUBLIC "-//W3C//DTD SVG 20010904//EN"
 "http://www.w3.org/TR/2001/REC-SVG-20010904/DTD/svg10.dtd">
<svg version="1.0" xmlns="http://www.w3.org/2000/svg"
 width="700.000000pt" height="700.000000pt" viewBox="0 0 700.000000 700.000000"
 preserveAspectRatio="xMidYMid meet">
<metadata>
Created by potrace 1.14, written by Peter Selinger 2001-2017
</metadata>
<g transform="translate(0.000000,700.000000) scale(0.100000,-0.100000)"
fill="#000000" stroke="none">
<path d="M3327 6124 c-1 -1 -72 -5 -157 -8 -85 -4 -168 -9 -185 -11 -16 -2
-73 -7 -125 -10 -52 -3 -108 -8 -125 -9 -16 -2 -66 -6 -110 -10 -44 -4 -91 -9
-105 -11 -14 -2 -54 -7 -90 -10 -104 -11 -123 -13 -170 -20 -25 -3 -61 -7 -80
-10 -41 -5 -259 -34 -310 -41 -19 -3 -46 -7 -60 -9 -14 -3 -43 -7 -65 -11
-167 -24 -419 -125 -593 -238 -200 -130 -405 -348 -509 -541 -11 -22 -30 -56
-41 -75 -32 -59 -89 -212 -112 -300 -20 -78 -91 -429 -104 -510 -3 -19 -8 -53
-11 -75 -3 -22 -8 -47 -10 -55 -2 -8 -7 -35 -10 -60 -6 -49 -16 -116 -20 -140
-2 -9 -6 -47 -10 -85 -4 -39 -9 -83 -10 -100 -4 -39 -16 -212 -30 -425 -3 -47
-8 -119 -11 -160 -2 -41 -7 -102 -9 -135 -5 -83 -15 -221 -20 -275 -3 -25 -8
-79 -12 -120 -14 -152 -7 -368 16 -482 45 -225 137 -430 266 -598 108 -139
284 -279 422 -335 38 -15 77 -31 88 -36 42 -18 194 -40 275 -40 455 1 869 332
1235 986 81 146 104 176 163 220 96 70 77 68 777 69 347 1 652 -2 678 -6 27
-4 70 -17 95 -29 52 -25 140 -108 163 -154 166 -324 376 -610 580 -790 102
-90 174 -139 287 -195 99 -49 163 -70 262 -86 19 -3 38 -8 42 -10 10 -7 208
-5 243 1 123 24 187 45 290 96 272 134 496 418 599 762 29 96 33 112 50 232
13 85 14 314 2 401 -3 21 -8 73 -11 114 -3 41 -8 98 -10 125 -3 28 -7 91 -10
140 -3 50 -8 122 -11 160 -3 39 -7 102 -9 140 -10 193 -17 302 -20 325 -2 14
-7 56 -10 94 -14 166 -29 271 -70 511 -28 162 -27 155 -65 345 -45 222 -77
323 -150 472 -193 391 -543 688 -965 818 -83 25 -258 60 -380 75 -70 9 -116
15 -145 20 -14 3 -50 7 -80 10 -53 5 -93 10 -170 19 -19 3 -60 8 -90 11 -30 3
-71 8 -90 10 -19 2 -64 7 -100 10 -36 4 -81 8 -100 10 -19 2 -73 7 -120 10
-47 4 -105 8 -130 10 -143 12 -695 26 -703 19z m613 -597 c25 -2 95 -8 155
-12 61 -4 117 -9 126 -10 8 -2 53 -6 100 -10 46 -4 91 -8 99 -10 8 -1 44 -6
80 -10 36 -4 81 -8 100 -11 19 -2 60 -6 90 -10 30 -3 66 -7 80 -9 37 -6 88
-13 145 -20 237 -28 357 -56 481 -114 117 -55 197 -112 294 -210 161 -161 248
-345 296 -621 2 -14 7 -36 9 -50 8 -40 14 -71 25 -130 6 -30 12 -66 15 -80 3
-13 7 -42 10 -65 3 -22 8 -47 10 -55 2 -8 7 -40 10 -70 3 -30 8 -62 10 -70 7
-25 20 -129 30 -241 12 -127 14 -155 20 -274 3 -66 8 -138 10 -160 2 -22 7
-94 10 -160 4 -66 8 -136 10 -155 4 -40 16 -184 32 -370 10 -120 7 -226 -7
-295 -41 -206 -151 -391 -284 -479 -203 -135 -430 -51 -673 249 -71 89 -174
240 -220 325 -99 182 -131 231 -205 316 -102 117 -265 227 -407 274 -133 45
-188 47 -928 45 -384 -1 -711 -5 -728 -9 -151 -35 -277 -92 -384 -173 -127
-96 -213 -201 -316 -386 -75 -135 -186 -305 -248 -382 -113 -140 -267 -267
-367 -301 -167 -58 -332 8 -454 180 -73 103 -121 215 -147 341 -12 60 -15 225
-5 300 3 22 8 81 12 130 3 50 8 106 9 125 2 19 6 78 9 130 4 52 9 115 11 140
4 42 9 130 20 330 7 127 22 302 30 362 3 21 7 57 10 81 31 243 118 693 156
812 91 284 317 517 614 630 56 22 185 52 251 59 32 4 70 9 84 11 49 9 86 14
143 20 32 4 67 8 78 10 11 2 47 7 80 10 33 4 68 8 78 10 9 2 50 6 90 10 40 3
80 8 89 10 9 1 53 6 97 9 44 4 103 9 130 12 107 10 154 14 270 20 66 4 122 8
124 10 5 5 682 -4 741 -9z"/>
<path d="M4872 4944 c-163 -50 -248 -239 -179 -394 73 -164 273 -222 427 -125
145 92 171 305 53 436 -73 80 -199 115 -301 83z"/>
<path d="M1960 4801 c-79 -24 -150 -87 -184 -161 -15 -34 -21 -72 -24 -155
l-4 -110 -102 -1 c-87 -1 -111 -5 -158 -26 -68 -31 -111 -73 -146 -141 -22
-43 -26 -64 -26 -127 2 -117 57 -205 158 -255 61 -30 81 -33 192 -34 l82 -1 4
-112 c3 -92 8 -121 26 -155 45 -86 109 -137 202 -161 90 -23 204 13 271 85 64
70 80 117 82 239 l1 104 81 1 c44 0 94 2 111 4 91 9 201 105 229 198 33 113 9
212 -71 293 -67 66 -123 86 -253 88 l-96 2 -2 97 c0 53 -7 113 -14 134 -27 85
-104 163 -188 191 -38 13 -132 14 -171 3z"/>
<path d="M4323 4369 c-110 -20 -198 -102 -227 -211 -28 -107 0 -206 79 -282
141 -138 370 -99 459 79 38 73 40 174 6 249 -53 118 -188 187 -317 165z"/>
<path d="M5495 4370 c-98 -17 -170 -72 -214 -163 -96 -199 54 -423 276 -412
244 11 362 300 198 483 -67 75 -162 108 -260 92z"/>
<path d="M4871 3779 c-52 -16 -117 -65 -149 -112 -103 -151 -55 -340 108 -425
60 -31 71 -34 135 -30 85 6 149 32 198 83 135 139 103 369 -65 460 -58 32
-165 43 -227 24z"/>
</g>
</svg>
